<!-- Generated by IcoMoon.io -->
<!--<svg viewBox="0 0 1024 1024" width="38" height="38" fill="currentColor">-->
<!--<path d="M512 32.12c-265.004 0-479.88 220.23-479.88 492.090 0 217.446 137.536 401.684 328.202 466.81 23.994 4.498 32.778-10.712 32.778-23.78 0-11.782-0.428-42.632-0.642-83.764-133.466 29.778-161.744-65.984-161.744-65.984-21.852-56.772-53.344-71.982-53.344-71.982-43.49-30.636 3.214-29.992 3.214-29.992 48.202 3.428 73.482 50.772 73.482 50.772 42.846 75.196 112.258 53.558 139.68 40.918 4.284-31.706 16.71-53.558 30.42-65.77-106.474-12.426-218.516-54.63-218.516-243.152 0-53.772 18.638-97.69 49.274-131.966-4.928-12.426-21.424-62.556 4.714-130.252 0 0 40.276-13.282 131.966 50.344 38.348-10.926 79.266-16.282 120.184-16.496 40.704 0.214 81.836 5.57 120.184 16.496 91.692-63.626 131.752-50.344 131.752-50.344 26.136 67.698 9.64 117.828 4.714 130.252 30.636 34.492 49.274 78.408 49.274 131.966 0 188.952-112.258 230.514-219.16 242.724 17.138 15.21 32.564 45.202 32.564 91.048 0 65.77-0.642 118.898-0.642 134.966 0 13.068 8.57 28.492 32.992 23.566 191.094-64.912 328.418-249.152 328.418-466.382 0-271.86-214.874-492.090-479.88-492.090z"></path>-->
<!--</svg>-->
<svg xmlns="http://www.w3.org/2000/svg" class="si-glyph-global" viewBox="0 0 16 16">
<title>108</title>
<defs></defs>
<g stroke="none" stroke-width="1" fill="none" fill-rule="evenodd">
<g fill="#434343">
<path d="M8.048,0 C3.63045083,0 0.048,3.582 0.048,8 C0.048,12.418 3.63045083,16 8.048,16 C12.4665577,16 16.048,12.418 16.048,8 C16.048,3.582 12.4665577,0 8.048,0 L8.048,0 Z M8,15 C4.13533409,15 1,11.8671467 1,8 C1,4.13384159 4.13533409,1 8,1 C11.8646659,1 15,4.13384159 15,8 C15,11.868135 11.8646659,15 8,15 L8,15 Z" class="si-glyph-fill"></path>
<path d="M2.959,2.684 C2.689,4.028 3.694,6.083 5.831,6.583 C7.967,7.083 7.049,6.667 6.717,6 C6.383,5.333 6.682,4.833 7.199,4.667 C7.717,4.5 7.586,4.96 8.354,4 C8.548,2 6.882,3.973 6.716,3.14 C8.366,1.223 5.95,0.5 5.249,0.75 C4.548,1 3.229,1.339 2.959,2.684 L2.959,2.684 Z" class="si-glyph-fill"></path>
<path d="M6.873,7.694 C6.749,7.749 6.171,8.11 5.972,8.36 C5.773,8.61 5.686,9.138 5.972,9.36 C6.258,9.583 5.956,10.639 6.727,10.833 C7.498,11.027 8.27,11.14 8.299,11.75 C8.326,12.36 8.227,13.777 7.856,13.917 C8.356,14.194 9.573,12.722 10.001,11.944 C10.43,11.167 10.573,10.055 10.544,9.777 C10.515,9.5 10.715,8.917 10.801,8.167 C10.886,7.417 10.231,7.367 10.146,7.034 C10.059,6.7 9.943,6.333 6.873,7.694 L6.873,7.694 Z" class="si-glyph-fill"></path>
<path d="M13.125,4 C13.125,4 11.113,4.861 12.481,6.14 C13.847,7.417 14.543,8.63 14.476,8.908 C14.414,9.184 13.096,10.614 13.853,10.502 C14.614,10.391 15.175,8.891 15.296,8.001 C15.415,7.111 14.372,5.362 14.329,5.224 C14.293,5.083 13.607,4.015 13.125,4 L13.125,4 Z" class="si-glyph-fill"></path>
</g>
</g>
</svg>
