<!-- Generated by IcoMoon.io -->
<!--<svg viewBox="0 0 1024 1024" width="38" height="38" fill="currentColor">-->
<!--<path d="M512.029 31.011c-263.32 0-476.784 213.502-476.784 476.784 0 263.32 213.464 476.743 476.784 476.743s476.743-213.424 476.743-476.743c0-263.282-213.444-476.784-476.743-476.784zM752.193 411.663c0.251 5.151 0.349 10.319 0.349 15.548 0 158.786-120.856 341.85-341.85 341.85-67.844 0-131.021-19.884-184.188-53.961 9.41 1.104 18.955 1.665 28.656 1.665 56.305 0 108.115-19.208 149.221-51.425-52.567-0.987-96.925-35.741-112.22-83.468 7.32 1.433 14.85 2.149 22.595 2.149 10.959 0 21.569-1.433 31.656-4.201-54.987-11.035-96.402-59.634-96.402-117.796 0-0.524 0-1.025 0.020-1.549 16.186 9.003 34.716 14.404 54.427 15.044-32.258-21.587-53.458-58.317-53.458-100.023 0-22.015 5.925-42.673 16.264-60.408 59.266 72.683 147.807 120.527 247.676 125.521-2.053-8.77-3.118-17.968-3.118-27.378 0-66.333 53.787-120.14 120.158-120.14 34.561 0 65.771 14.599 87.69 37.93 27.378-5.363 53.091-15.393 76.305-29.16-9.003 28.074-28.036 51.618-52.858 66.47 24.338-2.903 47.495-9.37 69.024-18.917-16.070 24.144-36.459 45.306-59.945 62.248z"></path>-->
<!--</svg>-->

<svg xmlns="http://www.w3.org/2000/svg" class="si-glyph-alien" viewBox="0 0 17 17">
<title>1155</title>
<defs></defs>
<g stroke="none" stroke-width="1" fill="none" fill-rule="evenodd">
<path d="M9.014,0.143 C5.159,0.143 2.031,3.122 2.031,6.794 C2.031,10.469 7.209,16 9.014,16 C10.822,16 16,10.469 16,6.794 C16,3.122 12.873,0.143 9.014,0.143 L9.014,0.143 Z M7.895,10.895 C7.579,11.213 6.481,10.624 5.447,9.574 C4.411,8.528 3.829,7.42 4.145,7.1 C4.46,6.779 5.557,7.369 6.592,8.417 C7.625,9.465 8.211,10.572 7.895,10.895 L7.895,10.895 Z M10.114,10.887 C9.794,10.567 10.384,9.461 11.435,8.414 C12.484,7.367 13.593,6.778 13.915,7.1 C14.235,7.418 13.644,8.524 12.595,9.57 C11.545,10.617 10.434,11.204 10.114,10.887 L10.114,10.887 Z" fill="#434343" class="si-glyph-fill"></path>
</g>
</svg>







